<svg width="90" height="47" viewBox="0 0 90 47" fill="none" xmlns="http://www.w3.org/2000/svg">
<g clip-path="url(#clip0)">
<path d="M29.0883 5.40599H23.1475C18.392 5.45161 13.8479 7.38043 10.5083 10.7709C7.16873 14.1614 5.30518 18.7378 5.32494 23.5C5.32494 32.3619 12.7202 41.594 21.9889 41.594H23.7144V26.5362H14.5197V21.1056H29.1129V46.9013H23.1228C16.9637 46.8491 11.0754 44.3591 6.74329 39.9747C2.41117 35.5903 -0.0128687 29.6678 0.000373132 23.5C-0.0456085 17.3217 2.35798 11.3774 6.68367 6.9717C11.0094 2.56598 16.9038 0.0586713 23.0735 0L29.0883 0V5.40599Z" fill="#1D1D1B"/>
<path d="M70.2055 5.43021C64.5358 5.43021 65.6451 10.5647 67.3706 13.5515C68.8004 16.02 70.1808 18.2417 71.8078 20.957C75.2342 26.8567 77.157 32.3614 74.5933 37.9402C71.4873 44.6298 66.5572 46.3577 60.4931 46.9008V41.5935C62.4398 41.5867 64.3431 41.0169 65.9742 39.9528C67.6054 38.8887 68.8949 37.3755 69.6878 35.5951C73.2375 27.8194 61.4544 18.3157 60.5177 10.9102C60.3171 9.5419 60.4164 8.14622 60.8086 6.82015C61.2009 5.49409 61.8767 4.26942 62.7891 3.23122C63.7016 2.19302 64.8288 1.36617 66.0925 0.808097C67.3562 0.250028 68.726 -0.0258811 70.1069 -0.00046604H72.8185V5.43021H70.2055Z" fill="#1D1D1B"/>
<path d="M31.3558 0H45.0124L45.037 5.40599H36.8037V8.88655H41.3394V14.3172H36.8037V41.594H45.0124V47H31.3558V0Z" fill="#1D1D1B"/>
<path d="M82.6788 0H77.3049V47H82.6788V0Z" fill="#1D1D1B"/>
<path d="M56.6968 5.43022C51.0025 5.43022 52.1364 10.5647 53.862 13.5515C55.2671 16.02 56.6721 18.2417 58.2991 20.957C61.7009 26.8567 63.6483 32.3614 61.0846 37.9402C57.9293 44.6298 52.8513 46.3577 46.8365 46.9008V41.5936C48.7825 41.5836 50.6845 41.0126 52.3151 39.9489C53.9457 38.8852 55.2358 37.3737 56.0312 35.5951C59.5809 27.8194 47.7979 18.3157 46.8611 10.9103C46.659 9.5335 46.7604 8.1291 47.1583 6.79578C47.5561 5.46247 48.2408 4.23261 49.1642 3.19267C50.0876 2.15272 51.2273 1.32793 52.503 0.776283C53.7788 0.224632 55.1598 -0.0404914 56.5489 -0.000448533H59.1619V5.43022H56.6968Z" fill="#1D1D1B"/>
<path d="M86.475 2.73887V1.57868H87.2145C87.6336 1.57868 88.028 1.57868 88.028 2.14643C88.028 2.71419 87.5103 2.73887 87.0173 2.73887H86.475ZM86.475 3.08446H87.1652L88.1019 4.56555H88.5949L87.5842 3.08446C87.7008 3.07815 87.8151 3.04887 87.9203 2.99828C88.0256 2.94769 88.1199 2.87679 88.1977 2.78965C88.2756 2.70251 88.3355 2.60083 88.3741 2.49046C88.4126 2.38008 88.429 2.26317 88.4224 2.14643C88.4224 1.554 88.1019 1.23309 87.3377 1.23309H86.0559V4.56555H86.475V3.08446ZM87.1159 0.418493C87.7697 0.418493 88.3967 0.678565 88.859 1.1415C89.3213 1.60443 89.581 2.2323 89.581 2.88698C89.581 3.54166 89.3213 4.16953 88.859 4.63246C88.3967 5.0954 87.7697 5.35547 87.1159 5.35547C86.4621 5.35547 85.8351 5.0954 85.3728 4.63246C84.9105 4.16953 84.6508 3.54166 84.6508 2.88698C84.6508 2.2323 84.9105 1.60443 85.3728 1.1415C85.8351 0.678565 86.4621 0.418493 87.1159 0.418493V0.418493ZM87.1159 -0.00114991C86.7342 -0.00775618 86.355 0.0622513 86.0007 0.204743C85.6464 0.347236 85.3242 0.559327 85.0531 0.828509C84.782 1.09769 84.5675 1.41851 84.4222 1.77205C84.2769 2.12559 84.2037 2.50468 84.2071 2.88698C84.1699 3.29036 84.2171 3.69708 84.3458 4.08115C84.4744 4.46522 84.6817 4.8182 84.9542 5.11753C85.2268 5.41686 85.5588 5.65596 85.9288 5.81956C86.2989 5.98316 86.699 6.06766 87.1036 6.06766C87.5081 6.06766 87.9082 5.98316 88.2783 5.81956C88.6484 5.65596 88.9803 5.41686 89.2529 5.11753C89.5255 4.8182 89.7327 4.46522 89.8614 4.08115C89.99 3.69708 90.0372 3.29036 90 2.88698C90.0067 2.50586 89.9367 2.1273 89.7941 1.77388C89.6515 1.42045 89.4393 1.0994 89.1702 0.829867C88.901 0.560335 88.5804 0.347846 88.2274 0.205071C87.8745 0.062297 87.4965 -0.00783772 87.1159 -0.00114991" fill="#1D1D1B"/>
</g>
<defs>
<clipPath id="clip0">
<rect width="90" height="47" fill="white"/>
</clipPath>
</defs>
</svg>
