<svg xmlns="http://www.w3.org/2000/svg" width="24" height="24" fill="none"><g clip-path="url(#a)"><path fill="#0A4EB7" d="M21.818 2.561h-3.272V.38h-2.183v6.546h2.183V4.743h3.272v16.364H2.182V4.743h2.181V2.561H2.182A2.183 2.183 0 0 0 0 4.743v16.364c0 1.204.978 2.182 2.182 2.182h19.636A2.183 2.183 0 0 0 24 21.107V4.743a2.184 2.184 0 0 0-2.182-2.182Z"/><path fill="#0A4EB7" d="M7.643 4.743h7.636V2.561H7.643V.38H5.46v6.546h2.182V4.743Z"/><path fill="#5E5E5E" d="M8.73 9.104H4.367v4.363H8.73V9.104ZM14.18 9.104H9.816v4.363h4.364V9.104ZM15.277 13.467h4.364V9.104h-4.364v4.363ZM4.367 18.927H8.73v-4.364H4.367v4.364ZM9.816 18.927h4.364v-4.364H9.816v4.364Z"/></g><defs><clipPath id="a"><path fill="#fff" d="M0 .38h24v22.8H0z"/></clipPath></defs></svg>