<svg xmlns="http://www.w3.org/2000/svg" xml:space="preserve" width="512" height="512" style="enable-background:new 0 0 512 512" viewBox="0 0 682.667 682.667"><defs><clipPath id="a" clipPathUnits="userSpaceOnUse"><path d="M0 512h512V0H0Z" data-original="#000000"/></clipPath></defs><g fill="none" stroke="#000" stroke-linecap="round" stroke-linejoin="round" stroke-miterlimit="10" stroke-width="15" clip-path="url(#a)" transform="matrix(1.33333 0 0 -1.33333 0 682.667)"><path d="M0 0h-126.473c-24.341 0-44.257 19.899-44.257 44.221v408.558c0 24.322 19.916 44.221 44.257 44.221h289.486c24.341 0 44.257-19.899 44.257-44.221V44.221C207.27 19.899 187.354 0 163.013 0H36.143" data-original="#000000" style="stroke-width:15;stroke-linecap:round;stroke-linejoin:round;stroke-miterlimit:10;stroke-dasharray:none;stroke-opacity:1" transform="translate(237.73 7.5)"/><path d="M0 0v-63.015h32.625c8.228 0 15.434 3.062 21.533 9.185 6.128 6.123 9.192 13.408 9.192 21.855 0 8.844-2.893 16.384-8.709 22.621C48.825-3.118 41.59 0 32.938 0Zm-51.321-48.274v67.266c0 7.597 2.582 13.975 7.745 19.134 5.192 5.187 11.461 7.768 18.866 7.768h60.201c23.859 0 43.292-7.172 58.272-21.544C108.77 10.007 116.26-8.674 116.26-31.663c0-22.791-7.064-41.216-21.221-55.247-14.156-14.032-32.937-21.033-56.399-21.033H0v-51.619c0-6.946-2.553-12.983-7.603-18.029-5.078-5.074-11.093-7.596-18.072-7.596-6.95 0-12.993 2.522-18.043 7.596-5.078 5.046-7.603 11.281-7.603 18.68v75.997" data-original="#000000" style="stroke-width:15;stroke-linecap:round;stroke-linejoin:round;stroke-miterlimit:10;stroke-dasharray:none;stroke-opacity:1" transform="translate(228.396 389.526)"/><path d="M0 0h-26.384" data-original="#000000" style="stroke-width:15;stroke-linecap:round;stroke-linejoin:round;stroke-miterlimit:10;stroke-dasharray:none;stroke-opacity:1" transform="translate(375.749 84.914)"/><path d="M0 0v58.564" data-original="#000000" style="stroke-width:15;stroke-linecap:round;stroke-linejoin:round;stroke-miterlimit:10;stroke-dasharray:none;stroke-opacity:1" transform="translate(349.365 84.914)"/><path d="M0 0h-26.384" data-original="#000000" style="stroke-width:15;stroke-linecap:round;stroke-linejoin:round;stroke-miterlimit:10;stroke-dasharray:none;stroke-opacity:1" transform="translate(375.749 143.478)"/><path d="M0 0h-22.611" data-original="#000000" style="stroke-width:15;stroke-linecap:round;stroke-linejoin:round;stroke-miterlimit:10;stroke-dasharray:none;stroke-opacity:1" transform="translate(371.976 115.613)"/><path d="M0 0h-26.384" data-original="#000000" style="stroke-width:15;stroke-linecap:round;stroke-linejoin:round;stroke-miterlimit:10;stroke-dasharray:none;stroke-opacity:1" transform="translate(308.541 84.914)"/><path d="M0 0v58.564" data-original="#000000" style="stroke-width:15;stroke-linecap:round;stroke-linejoin:round;stroke-miterlimit:10;stroke-dasharray:none;stroke-opacity:1" transform="translate(282.157 84.914)"/><path d="M0 0h-26.384" data-original="#000000" style="stroke-width:15;stroke-linecap:round;stroke-linejoin:round;stroke-miterlimit:10;stroke-dasharray:none;stroke-opacity:1" transform="translate(308.541 143.478)"/><path d="M0 0h-22.61" data-original="#000000" style="stroke-width:15;stroke-linecap:round;stroke-linejoin:round;stroke-miterlimit:10;stroke-dasharray:none;stroke-opacity:1" transform="translate(304.768 115.643)"/><path d="M0 0v58.564" data-original="#000000" style="stroke-width:15;stroke-linecap:round;stroke-linejoin:round;stroke-miterlimit:10;stroke-dasharray:none;stroke-opacity:1" transform="translate(203.771 84.914)"/><path d="M0 0h18.752c9.221 0 16.767-7.54 16.767-16.753 0-9.213-7.546-16.753-16.767-16.753H0Z" data-original="#000000" style="stroke-width:15;stroke-linecap:round;stroke-linejoin:round;stroke-miterlimit:10;stroke-dasharray:none;stroke-opacity:1" transform="translate(203.771 143.478)"/><path d="m0 0 15.207-25.059" data-original="#000000" style="stroke-width:15;stroke-linecap:round;stroke-linejoin:round;stroke-miterlimit:10;stroke-dasharray:none;stroke-opacity:1" transform="translate(222.523 109.973)"/><path d="M0 0v58.564" data-original="#000000" style="stroke-width:15;stroke-linecap:round;stroke-linejoin:round;stroke-miterlimit:10;stroke-dasharray:none;stroke-opacity:1" transform="translate(137.017 84.914)"/><path d="M0 0h-26.384" data-original="#000000" style="stroke-width:15;stroke-linecap:round;stroke-linejoin:round;stroke-miterlimit:10;stroke-dasharray:none;stroke-opacity:1" transform="translate(163.4 143.478)"/><path d="M0 0h-22.639" data-original="#000000" style="stroke-width:15;stroke-linecap:round;stroke-linejoin:round;stroke-miterlimit:10;stroke-dasharray:none;stroke-opacity:1" transform="translate(159.656 115.613)"/><path d="M0 0v-7.852" data-original="#000000" style="stroke-width:15;stroke-linecap:round;stroke-linejoin:round;stroke-miterlimit:10;stroke-dasharray:none;stroke-opacity:1" transform="translate(116.619 455.233)"/><path d="M0 0v-7.852" data-original="#000000" style="stroke-width:15;stroke-linecap:round;stroke-linejoin:round;stroke-miterlimit:10;stroke-dasharray:none;stroke-opacity:1" transform="translate(400.431 455.233)"/><path d="M0 0v-26.646" data-original="#000000" style="stroke-width:15;stroke-linecap:round;stroke-linejoin:round;stroke-miterlimit:10;stroke-dasharray:none;stroke-opacity:1" transform="translate(177.075 306.612)"/><path d="M0 0v-26.618" data-original="#000000" style="stroke-width:15;stroke-linecap:round;stroke-linejoin:round;stroke-miterlimit:10;stroke-dasharray:none;stroke-opacity:1" transform="translate(177.075 367.87)"/></g></svg>