<svg xmlns="http://www.w3.org/2000/svg" xml:space="preserve" width="512" height="512" style="enable-background:new 0 0 512 512" viewBox="0 0 60 57"><path d="M57 24h-9.786A2.981 2.981 0 0 0 48 22V3a3 3 0 0 0-3-3H26c-.764 0-1.499.293-2.053.819l-9.212 6.47A3 3 0 0 0 13 10v14c-.764 0-1.499.293-2.053.819l-9.212 6.47A3 3 0 0 0 0 34v20a3 3 0 0 0 3 3h21a2.981 2.981 0 0 0 2-.78c.547.5 1.26.777 2 .78h21c.811 0 1.588-.331 2.15-.916l7.958-7.958A2.98 2.98 0 0 0 60 46V27a3.015 3.015 0 0 0-3-3zm-6.666 7.327A2.964 2.964 0 0 0 49 31h-8.766l5-5h11.188zM24 31h-8a1 1 0 0 1-1-1V10a1 1 0 0 1 1-1h21a1 1 0 0 1 1 1v20a.994.994 0 0 1-.285.7l-.02.02A.994.994 0 0 1 37 31zM39.727 8.766 46 3.277V22a.979.979 0 0 1-.3.7L40 28.409V10a2.963 2.963 0 0 0-.273-1.234zm-1.393-1.439A2.964 2.964 0 0 0 37 7h-7.085l6.428-5h8.079zM25.165 2.408a1 1 0 0 0 .141-.12A.971.971 0 0 1 26 2h7.085l-6.428 5h-8.03zm-13 24a1 1 0 0 0 .141-.12A.971.971 0 0 1 13 26v4c.003.341.066.68.184 1H5.627zM3 55a1 1 0 0 1-1-1V34a1 1 0 0 1 1-1h21a1 1 0 0 1 1 1v20a1 1 0 0 1-.286.7l-.018.017A.993.993 0 0 1 24 55zm25 0a1 1 0 0 1-1-1V34a1 1 0 0 1 1-1h21a1 1 0 0 1 1 1v20a1 1 0 0 1-.278.685l-.022.015-.014.016A1 1 0 0 1 49 55zm29.7-8.3L52 52.4V34a2.963 2.963 0 0 0-.273-1.234L58 27.277V46a.979.979 0 0 1-.3.7z" data-original="#000000"/><path d="M23 23h-4a2 2 0 0 0-2 2v2a2 2 0 0 0 2 2h4a2 2 0 0 0 2-2v-2a2 2 0 0 0-2-2zm-4 4v-2h4v2zm16-4h-3a1 1 0 0 0 0 2h3a1 1 0 0 0 0-2zm0 4h-3a1 1 0 0 0 0 2h3a1 1 0 0 0 0-2zM10 47H6a2 2 0 0 0-2 2v2a2 2 0 0 0 2 2h4a2 2 0 0 0 2-2v-2a2 2 0 0 0-2-2zm-4 4v-2h4v2zm16-4h-3a1 1 0 0 0 0 2h3a1 1 0 0 0 0-2zm0 4h-3a1 1 0 0 0 0 2h3a1 1 0 0 0 0-2zm13-4h-4a2 2 0 0 0-2 2v2a2 2 0 0 0 2 2h4a2 2 0 0 0 2-2v-2a2 2 0 0 0-2-2zm-4 4v-2h4v2zm16-4h-3a1 1 0 0 0 0 2h3a1 1 0 0 0 0-2zm0 4h-3a1 1 0 0 0 0 2h3a1 1 0 0 0 0-2z" data-original="#000000"/></svg>