<svg xmlns="http://www.w3.org/2000/svg">
    <symbol id="vk" viewBox="0 0 24 24">
        <path d="M12.145 19.5c3.472 0 2.234-2.198 2.502-2.83-.004-.472-.008-.926.008-1.202.22.062.739.325 1.811 1.367 1.655 1.67 2.078 2.665 3.415 2.665h2.461c.78 0 1.186-.323 1.389-.594.196-.262.388-.722.178-1.438-.549-1.724-3.751-4.701-3.95-5.015a2.84 2.84 0 0 1 .103-.175h-.002c.632-.835 3.044-4.449 3.399-5.895a.019.019 0 0 0 .002-.008c.192-.66.016-1.088-.166-1.33-.274-.362-.71-.545-1.299-.545h-2.461c-.824 0-1.449.415-1.765 1.172-.529 1.345-2.015 4.111-3.129 5.09a64.114 64.114 0 0 1 .007-3.233c.036-1.535.152-3.029-1.441-3.029H9.339c-.998 0-1.953 1.09-.919 2.384.904 1.134.325 1.766.52 4.912-.76-.815-2.112-3.016-3.068-5.829-.268-.761-.674-1.466-1.817-1.466H1.594C.596 4.501 0 5.045 0 5.956 0 8.002 4.529 19.5 12.145 19.5zM4.055 6.001c.217 0 .239 0 .4.457.979 2.883 3.175 7.149 4.779 7.149 1.205 0 1.205-1.235 1.205-1.7l-.001-3.702C10.372 6.98 9.926 6.37 9.633 6l3.508.004c.002.017-.02 4.095.01 5.083 0 1.403 1.114 2.207 2.853.447 1.835-2.071 3.104-5.167 3.155-5.293.075-.18.14-.241.376-.241h2.471l-.002.009c-.225 1.05-2.446 4.396-3.189 5.435l-.034.05c-.327.534-.593 1.124.045 1.954h.001c.058.07.209.234.429.462.684.706 3.03 3.12 3.238 4.08-.138.022-.288.006-2.613.011-.495 0-.882-.74-2.359-2.23-1.328-1.292-2.19-1.82-2.975-1.82-1.524 0-1.413 1.237-1.399 2.733.005 1.622-.005 1.109.006 1.211-.089.035-.344.105-1.009.105C5.8 18 1.668 7.929 1.509 6.004c.055-.005.812-.002 2.546-.003z" data-original="#000000"/>
    </symbol>
    <symbol id="youtube" viewBox="0 0 682.667 682.667">
        <defs><clipPath id="a" clipPathUnits="userSpaceOnUse"><path d="M0 512h512V0H0Z" data-original="#000000"/></clipPath></defs><g fill="none" stroke="#000" stroke-linecap="round" stroke-linejoin="round" stroke-miterlimit="10" stroke-width="30" clip-path="url(#a)" transform="matrix(1.33333 0 0 -1.33333 0 682.667)"><path d="M0 0h-310.468c-47.172 0-85.766 38.595-85.766 85.766v157.097c0 47.171 38.594 85.766 85.766 85.766H0c47.171 0 85.766-38.595 85.766-85.766V85.766C85.766 38.595 47.171 0 0 0Z" data-original="#000000" style="stroke-width:30;stroke-linecap:round;stroke-linejoin:round;stroke-miterlimit:10;stroke-dasharray:none;stroke-opacity:1" transform="translate(411.234 91.686)"/><path d="M0 0v-164.08l132.217 80.95z" data-original="#000000" style="stroke-width:30;stroke-linecap:round;stroke-linejoin:round;stroke-miterlimit:10;stroke-dasharray:none;stroke-opacity:1" transform="translate(206.297 339.01)"/></g>
    </symbol>
    <symbol id="yandex" viewBox="0 0 320 320">
        <path d="M227.184 0h-45.466c-46.063 0-92.541 34.014-92.541 110.004 0 39.361 16.683 70.017 47.263 87.451L80.468 298.762c-2.653 4.791-2.722 10.221-.185 14.525C82.76 317.49 87.288 320 92.395 320h28.311c6.432 0 11.448-3.109 13.852-8.555L187.037 208.8h3.83v98.407c0 6.935 5.852 12.793 12.778 12.793h24.735c7.767 0 13.191-5.424 13.191-13.19V14.002C241.572 5.758 235.656 0 227.184 0zm-36.316 163.204h-6.756c-26.197 0-41.837-21.384-41.837-57.202 0-44.537 19.757-60.405 38.247-60.405h10.346v117.607z" data-original="#000000"/>
    </symbol>
    <symbol id="telegram" viewBox="0 0 512 512">
        <path d="M501.974 41.949a30.939 30.939 0 0 0-30.555-6.565L21.231 183.785C8.962 187.829.642 198.781.035 211.684c-.606 12.904 6.649 24.589 18.483 29.768l111.335 48.712 33.591 155.795c1.395 6.472 4.68 12.237 11.639 14.01 7.039 1.793 12.012-2.054 17.264-5.986l82.62-61.865 96.589 79.039c5.626 4.606 12.502 7.008 19.513 7.008a31.091 31.091 0 0 0 9.986-1.657c10.166-3.447 17.702-11.744 20.159-22.193L511.18 71.813a30.938 30.938 0 0 0-9.206-29.864zm-302.43 276.128c-.055.13-.109.277-.16.453l-18.624 65.068-20.784-96.395 142.917-79.405-99.921 104.478a15.03 15.03 0 0 0-3.428 5.801zm5.911 88.525 8.459-29.555 8.091-28.269 28.991 23.724-45.541 34.1zM481.908 64.927l-89.965 382.502c-.045.19-.105.452-.545.601-.436.148-.648-.021-.798-.145l-105.691-86.488-.008-.007-48.969-40.072L393.255 156.82a15.035 15.035 0 0 0 1.035-19.579 15.034 15.034 0 0 0-19.204-3.955L142.135 262.715 30.572 213.902c-.34-.148-.527-.231-.5-.806.027-.573.221-.638.573-.754l450.188-148.4c.218-.071.464-.153.826.177.362.332.302.584.249.808z" data-original="#000000"/>
    </symbol>
    <symbol id="whatsapp" viewBox="0 0 24 24">
        <path fill="#000" fill-rule="evenodd" d="M3.5 12a8.5 8.5 0 1 1 8.5 8.5 8.455 8.455 0 0 1-4.542-1.314 1 1 0 0 0-.821-.113l-2.88.859 1.085-2.537a1 1 0 0 0-.07-.92A8.456 8.456 0 0 1 3.5 12ZM12 1.5C6.201 1.5 1.5 6.201 1.5 12c0 1.838.473 3.568 1.305 5.073L1.08 21.107a1 1 0 0 0 1.206 1.351l4.5-1.342A10.456 10.456 0 0 0 12 22.5c5.799 0 10.5-4.701 10.5-10.5S17.799 1.5 12 1.5Zm2.293 12.682-1.315.926A9.338 9.338 0 0 1 11 13.585a10.202 10.202 0 0 1-1.624-2.114l.835-.709a1 1 0 0 0 .236-1.232l-1.064-2a1 1 0 0 0-1.54-.283l-.316.275c-.759.662-1.208 1.75-.836 2.852A12.049 12.049 0 0 0 9.586 15c1.813 1.813 3.655 2.527 4.733 2.805.868.223 1.689-.076 2.268-.548l.591-.482a1 1 0 0 0-.12-1.634l-1.678-1a1 1 0 0 0-1.088.041Z" clip-rule="evenodd"/>
    </symbol>
    <symbol id="showroom" viewBox="0 0 512 512">
        <path d="M149 406.426h33c4.143 0 7.5-3.357 7.5-7.5s-3.357-7.5-7.5-7.5h-33c-4.143 0-7.5 3.357-7.5 7.5s3.357 7.5 7.5 7.5zm-57-183.54H60c-5.79 0-10.5 4.71-10.5 10.5v47c0 5.79 4.71 10.5 10.5 10.5h32c5.79 0 10.5-4.71 10.5-10.5v-47c0-5.79-4.71-10.5-10.5-10.5zm-4.5 53h-23v-38h23z" data-original="#000000"/><path d="M481 258.5c4.143 0 7.5-3.357 7.5-7.5v-70.114h11c6.893 0 12.5-5.607 12.5-12.5v-73c0-12.406-10.094-22.5-22.5-22.5h-6v-16.5c0-9.649-7.851-17.5-17.5-17.5h-53.533c.06-2.824-.759-5.637-2.436-7.988a13.274 13.274 0 0 0-10.785-5.554H353c-4.143 0-7.5 3.357-7.5 7.5s3.357 7.5 7.5 7.5h43.792l-18.813 54.658H115.208l18.813-54.658H318c4.143 0 7.5-3.357 7.5-7.5s-3.357-7.5-7.5-7.5H132.772a13.254 13.254 0 0 0-12.528 8.938l-1.585 4.604H46c-9.649 0-17.5 7.851-17.5 17.5v16.5h-6C10.094 72.886 0 82.98 0 95.386v73c0 6.893 5.607 12.5 12.5 12.5h11v263.771h-11c-6.893 0-12.5 5.607-12.5 12.5v17c0 6.893 5.607 12.5 12.5 12.5h487c6.893 0 12.5-5.607 12.5-12.5v-17c0-6.893-5.607-12.5-12.5-12.5h-11V286c0-4.143-3.357-7.5-7.5-7.5s-7.5 3.357-7.5 7.5v158.656h-75v-83H418c6.893 0 12.5-5.607 12.5-12.5v-46c0-6.893-5.607-12.5-12.5-12.5h-19.5v-69h75V251c0 4.143 3.357 7.5 7.5 7.5zM407.995 53.886H466c1.379 0 2.5 1.121 2.5 2.5v16.5h-67.045zM43.5 56.386c0-1.379 1.121-2.5 2.5-2.5h67.496l-6.54 19H43.5zM497 459.656v12H15v-12zM73.5 414.897v-14.872c0-9.413 7.658-17.071 17.072-17.071H113.5v31.943zm40 15v14.759h-8.364v-14.759zm-23.364 0v14.759H73.5v-14.759zm6.553-61.943 6.541-18.823a18.023 18.023 0 0 1 10.27-10.784v29.608H96.689zm-7.626-23.748-8.854 25.476c-12.613 4.32-21.709 16.285-21.709 30.343v44.632h-20V180.886h75v141.865c-11.183 2.339-20.583 10.364-24.437 21.455zM135 322.03h-6.5V180.886h75V322.03H170c-4.143 0-7.5 3.357-7.5 7.5s3.357 7.5 7.5 7.5h33.5v8.771a25.3 25.3 0 0 0-6.364-.809c-13.174 0-24.03 10.099-25.242 22.962H128.5V337.03h6.5c4.143 0 7.5-3.357 7.5-7.5s-3.357-7.5-7.5-7.5zm115.791 47.652-8.854-25.477c-3.74-10.76-12.694-18.654-23.438-21.251V180.886h75v263.771h-21v-44.632c.001-14.058-9.095-26.023-21.708-30.343zM218.5 414.897v-31.943h21.928c9.414 0 17.072 7.658 17.072 17.071v14.872zm39 15v14.759h-16.636v-14.759zm-54-61.943h-16.431c1.086-4.558 5.182-7.962 10.067-7.962 2.4 0 4.606.828 6.364 2.203zm22.364 61.943v14.759H218.5v-14.759zm-7.364-73.182v-17.921a18.016 18.016 0 0 1 9.27 10.335l6.541 18.824h-11.932a25.2 25.2 0 0 0-3.879-11.238zm-15 26.239v31.943h-75v-31.943zm0 46.943v14.759h-75v-14.759zm180-208.241v69H364c-6.893 0-12.5 5.607-12.5 12.5v46c0 6.893 5.607 12.5 12.5 12.5h19.5v83h-75v-223zm-75-15v-25.771h75v25.771zm75 99v41h-17v-41zm32 0v41h-17v-41zM15 165.886v-70.5c0-4.136 3.364-7.5 7.5-7.5h79.294l-1.568 4.556a13.278 13.278 0 0 0 1.743 12.007 13.274 13.274 0 0 0 10.785 5.554h266.474a13.254 13.254 0 0 0 12.528-8.937l4.536-13.18H489.5c4.136 0 7.5 3.364 7.5 7.5v70.5zm383.5 40.77v-25.771h75v25.771z" data-original="#000000"/><path d="M163.109 67.673c0 4.143 3.357 7.5 7.5 7.5H341.39c4.143 0 7.5-3.357 7.5-7.5s-3.357-7.5-7.5-7.5H170.609a7.5 7.5 0 0 0-7.5 7.5zM470 113.886h-43c-4.143 0-7.5 3.357-7.5 7.5s3.357 7.5 7.5 7.5h43c4.143 0 7.5-3.357 7.5-7.5s-3.357-7.5-7.5-7.5z" data-original="#000000"/>
    </symbol>
    <symbol id="catalog" viewBox="0 -0.5 21 21">
        <path fill="#fff" fill-rule="evenodd" d="M18.9 17.009c0 .551-.518.991-1.097.991h-3.15a.98.98 0 0 1-1.003-.991v-3A.994.994 0 0 1 14.653 13h3.15c.58 0 1.097.458 1.097 1.009v3ZM17.803 11h-3.15c-1.74 0-3.103 1.352-3.103 3.009v3c0 1.657 1.363 2.991 3.103 2.991h3.15C19.543 20 21 18.666 21 17.009v-3C21 12.352 19.543 11 17.803 11ZM7.35 17.009c0 .551-.518.991-1.097.991h-3.15a.98.98 0 0 1-1.003-.991v-3A.994.994 0 0 1 3.103 13h3.15c.58 0 1.097.458 1.097 1.009v3ZM6.253 11h-3.15C1.363 11 0 12.352 0 14.009v3C0 18.666 1.363 20 3.103 20h3.15c1.74 0 3.197-1.334 3.197-2.991v-3C9.45 12.352 7.993 11 6.253 11ZM18.9 6.009c0 .551-.518.991-1.097.991h-3.15a.98.98 0 0 1-1.003-.991v-3A.994.994 0 0 1 14.653 2h3.15c.58 0 1.097.458 1.097 1.009v3ZM17.803 0h-3.15c-1.74 0-3.103 1.352-3.103 3.009v3C11.55 7.666 12.913 9 14.653 9h3.15C19.543 9 21 7.666 21 6.009v-3C21 1.352 19.543 0 17.803 0ZM7.35 6.009c0 .551-.518.991-1.097.991h-3.15A.98.98 0 0 1 2.1 6.009v-3A.994.994 0 0 1 3.103 2h3.15c.58 0 1.097.458 1.097 1.009v3ZM6.253 0h-3.15C1.363 0 0 1.352 0 3.009v3C0 7.666 1.363 9 3.103 9h3.15C7.993 9 9.45 7.666 9.45 6.009v-3C9.45 1.352 7.993 0 6.253 0Z"/>
    </symbol>
    <symbol id="magnifier" viewBox="0 0 1024 1024">
        <path d="m795.904 750.72 124.992 124.928a32 32 0 0 1-45.248 45.248L750.656 795.904a416 416 0 1 1 45.248-45.248zM480 832a352 352 0 1 0 0-704 352 352 0 0 0 0 704z"/>
    </symbol>
    <symbol id="user" viewBox="0 0 512 512.001">
        <path d="M255.352 246.633c33.882 0 63.218-12.153 87.195-36.13 23.969-23.972 36.125-53.304 36.125-87.19 0-33.876-12.152-63.211-36.129-87.192C318.566 12.152 289.23 0 255.352 0c-33.887 0-63.22 12.152-87.192 36.125s-36.129 53.309-36.129 87.188c0 33.886 12.156 63.222 36.13 87.195 23.98 23.969 53.316 36.125 87.19 36.125zM189.379 57.34c18.394-18.395 39.973-27.336 65.973-27.336 25.996 0 47.578 8.941 65.976 27.336 18.395 18.398 27.34 39.98 27.34 65.972 0 26-8.945 47.579-27.34 65.977-18.398 18.399-39.98 27.34-65.976 27.34-25.993 0-47.57-8.945-65.973-27.34-18.399-18.394-27.344-39.976-27.344-65.976 0-25.993 8.945-47.575 27.344-65.973zm281.75 336.363c-.692-9.976-2.09-20.86-4.149-32.351-2.078-11.579-4.753-22.524-7.957-32.528-3.312-10.34-7.808-20.55-13.375-30.336-5.77-10.156-12.55-19-20.16-26.277-7.957-7.613-17.699-13.734-28.965-18.2-11.226-4.44-23.668-6.69-36.976-6.69-5.227 0-10.281 2.144-20.043 8.5a2711.03 2711.03 0 0 1-20.879 13.46c-6.707 4.274-15.793 8.278-27.016 11.903-10.949 3.543-22.066 5.34-33.043 5.34-10.968 0-22.086-1.797-33.043-5.34-11.21-3.622-20.3-7.625-26.996-11.899a2853.13 2853.13 0 0 1-20.898-13.469c-9.754-6.355-14.809-8.5-20.035-8.5-13.313 0-25.75 2.254-36.973 6.7-11.258 4.457-21.004 10.578-28.969 18.199-7.609 7.281-14.39 16.12-20.156 26.273-5.558 9.785-10.058 19.992-13.371 30.34-3.2 10.004-5.875 20.945-7.953 32.524-2.063 11.476-3.457 22.363-4.149 32.363-.68 9.777-1.023 19.953-1.023 30.234 0 26.727 8.496 48.363 25.25 64.32C86.797 504.017 108.688 512 135.316 512h246.532c26.62 0 48.511-7.984 65.062-23.73 16.758-15.946 25.254-37.59 25.254-64.325-.004-10.316-.351-20.492-1.035-30.242zm-44.906 72.828c-10.934 10.406-25.45 15.465-44.38 15.465H135.317c-18.933 0-33.449-5.059-44.379-15.46-10.722-10.208-15.933-24.141-15.933-42.587 0-9.594.316-19.066.95-28.16.616-8.922 1.878-18.723 3.75-29.137 1.847-10.285 4.198-19.937 6.995-28.675 2.684-8.38 6.344-16.676 10.883-24.668 4.332-7.618 9.316-14.153 14.816-19.418 5.145-4.926 11.63-8.957 19.27-11.98 7.066-2.798 15.008-4.329 23.629-4.56 1.05.56 2.922 1.626 5.953 3.602 6.168 4.02 13.277 8.606 21.137 13.625 8.86 5.649 20.273 10.75 33.91 15.152 13.941 4.508 28.16 6.797 42.273 6.797 14.114 0 28.336-2.289 42.27-6.793 13.648-4.41 25.058-9.507 33.93-15.164 8.043-5.14 14.953-9.593 21.12-13.617 3.032-1.973 4.903-3.043 5.954-3.601 8.625.23 16.566 1.761 23.636 4.558 7.637 3.024 14.122 7.059 19.266 11.98 5.5 5.262 10.484 11.798 14.816 19.423 4.543 7.988 8.208 16.289 10.887 24.66 2.801 8.75 5.156 18.398 7 28.675 1.867 10.434 3.133 20.239 3.75 29.145v.008c.637 9.058.957 18.527.961 28.148-.004 18.45-5.215 32.38-15.937 42.582zm0 0" data-original="#000000"/>
    </symbol>
    <symbol id="basket" viewBox="0 0 450.391 450.391">
        <path d="M143.673 350.322c-25.969 0-47.02 21.052-47.02 47.02 0 25.969 21.052 47.02 47.02 47.02 25.969 0 47.02-21.052 47.02-47.02.001-25.968-21.051-47.02-47.02-47.02zm0 73.143c-14.427 0-26.122-11.695-26.122-26.122s11.695-26.122 26.122-26.122 26.122 11.695 26.122 26.122c.001 14.427-11.695 26.122-26.122 26.122zm198.531-73.143c-25.969 0-47.02 21.052-47.02 47.02 0 25.969 21.052 47.02 47.02 47.02s47.02-21.052 47.02-47.02c0-25.968-21.051-47.02-47.02-47.02zm0 73.143c-14.427 0-26.122-11.695-26.122-26.122s11.695-26.122 26.122-26.122 26.122 11.695 26.122 26.122c.001 14.427-11.695 26.122-26.122 26.122zM448.261 76.037a13.064 13.064 0 0 0-8.359-4.18L99.788 67.155 90.384 38.42C83.759 19.211 65.771 6.243 45.453 6.028H10.449C4.678 6.028 0 10.706 0 16.477s4.678 10.449 10.449 10.449h35.004a27.17 27.17 0 0 1 25.078 18.286l66.351 200.098-5.224 12.016a50.154 50.154 0 0 0 4.702 45.453 48.588 48.588 0 0 0 39.184 21.943h203.233c5.771 0 10.449-4.678 10.449-10.449s-4.678-10.449-10.449-10.449H175.543a26.646 26.646 0 0 1-21.943-12.539 28.733 28.733 0 0 1-2.612-25.078l4.18-9.404 219.951-22.988c24.16-2.661 44.034-20.233 49.633-43.886L449.83 84.917a8.882 8.882 0 0 0-1.569-8.88zm-43.885 109.191c-3.392 15.226-16.319 26.457-31.869 27.69l-217.339 22.465-48.588-147.33 320.261 4.702-22.465 92.473z" data-original="#000000"/>
    </symbol>
    <symbol id="dog-sign" viewBox="0 0 32 33">
        <path fill="#fff" d="M16.003 20.848a3.97 3.97 0 0 1-3.965-3.966 3.97 3.97 0 0 1 3.965-3.965 3.97 3.97 0 0 1 3.966 3.965 3.97 3.97 0 0 1-3.966 3.966Zm0-19.202C7.601 1.646.766 8.48.766 16.883c0 8.405 6.835 15.24 15.237 15.24 3.074.01 6.078-.916 8.613-2.654l-1.724-2.512a12.133 12.133 0 0 1-6.889 2.117c-6.72 0-12.19-5.469-12.19-12.19 0-6.722 5.47-12.19 12.19-12.19 6.723 0 12.191 5.468 12.191 12.19v1.191c0 2.114-.91 3.38-2.438 3.38l-.003.027a1.378 1.378 0 0 0-.288-.027h-.319c-.857 0-2.132-1.246-2.132-2.086v-2.486a7.017 7.017 0 0 0-7.01-7.009 7.017 7.017 0 0 0-7.01 7.01 7.017 7.017 0 0 0 7.01 7.01 6.974 6.974 0 0 0 4.84-1.962c.99 1.456 2.672 2.57 4.302 2.57l.004-.028c.095.02.194.029.293.029h.313c3.28 0 5.486-2.582 5.486-6.428v-1.192c0-8.402-6.836-15.237-15.239-15.237Z"/></g><defs><clipPath id="a"><path fill="#fff" d="M0 .88h32v32H0z"/></clipPath></defs>
    </symbol>
    <symbol id="arrow_left" viewBox="0 0 16 16">
        <path fill="#1E1E1E" fill-rule="evenodd" d="M11.137 13.805a.666.666 0 0 1-.943 0L4.861 8.47a.667.667 0 0 1 0-.942l5.333-5.334a.667.667 0 0 1 .943.943L6.275 8l4.862 4.862a.667.667 0 0 1 0 .943Z" clip-rule="evenodd"/>
    </symbol>
    <symbol id="arrow_right" viewBox="0 0 16 16">
        <path fill="#1E1E1E" fill-rule="evenodd" d="M4.863 2.195a.667.667 0 0 1 .943 0l5.333 5.334a.667.667 0 0 1 0 .942l-5.333 5.334a.666.666 0 0 1-.943-.943L9.725 8 4.863 3.138a.667.667 0 0 1 0-.943Z" clip-rule="evenodd"/>
    </symbol>
</svg>
