<svg viewBox="0 0 558 123" fill="none" xmlns="http://www.w3.org/2000/svg"><path d="M58.31 2.552h1.625v22.226H58.31c-1.949-5.352-4.16-9.528-6.635-12.528-1.795-2.104-4.053-3.944-6.775-5.522-2.691-1.608-5.723-2.861-9.094-3.758a37.8 37.8 0 00-10.162-1.392c-2.567 0-4.857.355-6.867 1.067-2.01.711-3.712 1.763-5.104 3.155-.99.99-1.779 2.104-2.367 3.34-.588 1.238-.881 2.43-.881 3.574 0 2.165.835 4.036 2.505 5.614.774.774 1.872 1.516 3.295 2.227 1.454.712 3.31 1.408 5.568 2.088 2.289.68 5.475 1.516 9.558 2.506 1.114.34 1.872.541 2.274.603l2.274.557 3.619.928c6.125 1.578 10.594 2.97 13.41 4.176 2.814 1.207 5.212 2.8 7.191 4.78a15.093 15.093 0 013.573 5.103c.866 1.95 1.3 4.053 1.3 6.31 0 2.228-.48 4.47-1.439 6.729a18.018 18.018 0 01-4.083 5.893c-2.29 2.35-5.12 4.114-8.491 5.29-3.341 1.175-7.161 1.763-11.461 1.763-3 0-5.831-.31-8.492-.928-2.629-.588-5.846-1.686-9.65-3.295-2.476-.99-4.362-1.655-5.662-1.995-1.299-.371-2.52-.557-3.665-.557-2.197 0-4.068.588-5.615 1.763-1.515 1.145-2.52 2.784-3.016 4.919H1.795V37.213H3.42c.65 5.32 2.8 10.146 6.45 14.477 2.196 2.537 4.996 4.903 8.398 7.1a47.41 47.41 0 0010.765 5.057c3.743 1.206 7.3 1.81 10.672 1.81 3 0 5.739-.495 8.213-1.485 2.506-.99 4.455-2.367 5.847-4.13 1.392-1.763 2.088-3.758 2.088-5.986 0-2.35-.944-4.47-2.83-6.356-.867-.836-1.996-1.609-3.388-2.32-1.361-.712-3.14-1.439-5.336-2.181-2.165-.743-5.15-1.624-8.955-2.645l-4.64-1.253c-7.239-1.949-12.25-3.465-15.034-4.547-3.124-1.145-5.584-2.29-7.378-3.434-1.763-1.144-3.294-2.598-4.593-4.361C1.78 24.484.82 21.762.82 18.792c0-3.588 1.067-6.805 3.201-9.651 2.135-2.877 5.12-5.12 8.956-6.728C16.814.804 21.067 0 25.738 0c7.053 0 14.368 1.964 21.947 5.893 2.66 1.33 4.47 1.995 5.429 1.995 2.413 0 4.145-1.779 5.197-5.336zm57.92 12.621L103.516 44.08h25.752L116.23 15.173zM121.148 0h1.717l26.077 56.701c.835 1.764 1.763 3.217 2.784 4.362 1.052 1.144 2.227 1.98 3.526 2.505 1.3.495 2.831.743 4.594.743h1.717v1.81h-37.631v-1.81h4.919c2.443 0 4.222-.325 5.336-.975 1.144-.68 1.716-1.716 1.716-3.108 0-.867-.232-1.918-.696-3.156-.433-1.237-1.407-3.48-2.923-6.728a18.947 18.947 0 01-.417-.928c-.186-.433-.387-.85-.604-1.252l-1.067-2.367h-27.469l-2.088 4.826c-.68 1.64-1.02 3.294-1.02 4.965 0 1.423.386 2.83 1.159 4.222.805 1.392 1.841 2.444 3.109 3.155.835.495 1.578.835 2.227 1.021.681.155 1.64.263 2.877.325v1.81H82.589v-1.81c1.918-.217 3.434-.557 4.548-1.02 1.144-.465 2.412-1.238 3.804-2.32 3.28-2.537 6.481-7.317 9.605-14.339L121.148 0zm58.847 1.3h26.03l45.055 46.678V20.045c0-3.403-.588-6.372-1.763-8.909-1.145-2.567-2.815-4.516-5.011-5.846-1.176-.743-2.367-1.269-3.573-1.578-1.176-.31-2.83-.541-4.965-.696V1.299h32.109v1.717h-.649c-4.671 0-8.229 1.485-10.673 4.454-2.443 2.97-3.665 7.285-3.665 12.946V66.77h-1.531L195.4 9.28v38.512c0 3.743.448 6.744 1.345 9.002.897 2.227 2.351 3.975 4.362 5.243 1.64.99 3.635 1.624 5.986 1.903 1.299.216 3.155.37 5.568.464v1.717h-33.826v-1.717c3.464-.186 6.279-.79 8.445-1.81 2.196-1.052 3.805-2.598 4.825-4.64 1.052-2.042 1.578-4.578 1.578-7.61V13.688c0-2.258-.51-4.176-1.531-5.754-.99-1.577-2.444-2.784-4.362-3.619-1.918-.866-4.238-1.299-6.96-1.299h-.835V1.299zm105.247 0h76.004v32.897l-1.485.093c-.773-8.229-3.248-15.297-7.424-21.205-4.949-6.713-11.229-10.069-18.839-10.069h-3.387v49.51c0 7.856 3.913 11.785 11.739 11.785h9.791v1.81h-56.609v-1.81h9.698c7.857 0 11.786-3.929 11.786-11.786V3.016h-4.176c-7.734 0-14.013 3.62-18.839 10.858-2.382 3.557-4.191 7.795-5.429 12.713-.402 1.67-.804 4.207-1.206 7.61h-1.624V1.3zM422.273 0c6.063 0 11.601.974 16.612 2.923 5.042 1.918 9.419 4.733 13.131 8.445 3.124 3.155 5.537 6.682 7.238 10.58 1.702 3.866 2.553 7.826 2.553 11.878 0 6.094-1.733 11.708-5.197 16.843-3.434 5.135-8.12 9.203-14.06 12.204-5.908 3-12.389 4.5-19.441 4.5-5.383 0-10.456-.85-15.22-2.552-4.733-1.701-8.909-4.098-12.528-7.192-3.619-3.124-6.449-6.759-8.491-10.904-2.011-4.145-3.016-8.476-3.016-12.992 0-6.001 1.748-11.6 5.243-16.797 3.496-5.197 8.182-9.31 14.059-12.342C409.034 1.53 415.406 0 422.273 0zm1.207 1.67c-2.815 0-5.475.495-7.981 1.485-2.475.96-4.563 2.336-6.264 4.13-1.856 1.949-3.449 4.269-4.779 6.96-1.3 2.66-2.289 5.645-2.97 8.955-.65 3.28-.974 6.821-.974 10.626 0 4.764.526 9.11 1.577 13.038 1.052 3.898 2.568 7.27 4.547 10.116 1.98 2.815 4.347 4.965 7.1 6.45 2.753 1.484 5.815 2.226 9.187 2.226 4.578 0 8.553-1.299 11.925-3.897 3.403-2.63 6.001-6.372 7.795-11.229 1.825-4.857 2.738-10.626 2.738-17.307 0-4.331-.495-8.383-1.485-12.157-.99-3.774-2.413-7.053-4.269-9.837-1.856-2.815-4.099-5.042-6.728-6.682-1.299-.866-2.799-1.562-4.501-2.088-1.701-.526-3.341-.789-4.918-.789zm86.872 1.346v32.295h12.946c6.403 0 11.136-1.315 14.199-3.944 3.062-2.66 4.593-6.76 4.593-12.297 0-6.465-2.119-10.965-6.357-13.502-1.515-.897-3.294-1.547-5.336-1.949-2.041-.402-4.578-.603-7.609-.603h-12.436zm-27.654-1.717h38.698c2.289 0 4.794.078 7.517.232 2.722.155 5.165.356 7.331.603 2.165.217 3.959.48 5.382.79 5.104 1.082 9.002 3.03 11.693 5.846 2.722 2.784 4.083 6.248 4.083 10.393 0 2.846-.649 5.383-1.948 7.61-1.3 2.227-3.217 4.114-5.754 5.66-2.506 1.517-5.584 2.677-9.234 3.48-3.65.805-7.764 1.207-12.342 1.207h-17.772v15.405c0 7.92 3.929 11.879 11.786 11.879h3.248v1.717h-42.781v-1.717h2.274c7.857 0 11.785-3.96 11.785-11.879V14.802c0-7.857-3.928-11.786-11.785-11.786h-2.181V1.299zM86.047 100.292h23.219v8.453h-.469c-.427-1.479-.813-2.583-1.156-3.312a9.26 9.26 0 00-1.313-2.094c-.656-.781-1.37-1.338-2.14-1.672-1.282-.531-2.839-.797-4.672-.797h-4.297v10.375h1.156c1.719 0 3.083-.739 4.094-2.218.521-.761.906-1.667 1.156-2.719.125-.448.24-1.109.344-1.984h.547v14.312h-.547a23.405 23.405 0 00-.453-2.172c-.167-.687-.36-1.245-.578-1.672a7.34 7.34 0 00-.813-1.281c-.938-1.156-2.27-1.734-4-1.734h-.906v9.765h3.594c1.062 0 2.015-.073 2.859-.218a9.595 9.595 0 002.297-.704 8.544 8.544 0 001.906-1.25c1.021-.864 1.813-1.942 2.375-3.234.323-.739.661-1.739 1.016-3h.578v8.984H86.078l-.031-.578h.594c2.645 0 3.968-1.333 3.968-4v-12.703c0-1.354-.322-2.354-.968-3-.646-.646-1.646-.969-3-.969h-.594v-.578zm106.344 0h14.234v.578h-.281c-.782 0-1.412.125-1.891.375-.469.24-.703.573-.703 1 0 .24.073.532.219.875.156.334.359.662.609.985l4.406 5.094 3.438-3.5c.833-.865 1.25-1.662 1.25-2.391 0-.74-.307-1.323-.922-1.75-.615-.427-1.505-.656-2.672-.688v-.578h11.719v.578c-1.386.23-2.573.594-3.563 1.094-1.812.906-3.474 2.13-4.984 3.672l-3.906 4 7.265 8.484c.927 1.073 1.891 1.912 2.891 2.516 1 .604 1.932.906 2.797.906h.391v.578h-14.532v-.578h1.25c.896 0 1.589-.125 2.078-.375.49-.26.735-.614.735-1.062 0-.49-.255-1.011-.766-1.563l-5.047-5.922-3.594 3.672c-.364.386-.661.735-.89 1.047a3.353 3.353 0 00-.5.891 2.741 2.741 0 00-.141.875c0 .75.308 1.344.922 1.781.625.438 1.49.656 2.594.656h.641v.578h-13.047v-.578c.875-.114 1.604-.26 2.187-.437a17.013 17.013 0 002.031-.813c1.792-.843 3.48-2.047 5.063-3.609l4.375-4.453-7.235-8.344c-1.708-2.01-3.661-3.016-5.859-3.016h-.562v-.578zm121.015.578v10.875h4.36c2.156 0 3.75-.442 4.781-1.328 1.031-.895 1.547-2.276 1.547-4.14 0-2.177-.714-3.693-2.141-4.547-.51-.302-1.109-.521-1.797-.656-.687-.136-1.541-.204-2.562-.204h-4.188zm-9.312-.578h13.031c.771 0 1.615.026 2.531.078.917.053 1.74.12 2.469.204a16.63 16.63 0 011.813.265c1.718.365 3.031 1.021 3.937 1.969.917.937 1.375 2.104 1.375 3.5 0 .958-.219 1.812-.656 2.562-.438.75-1.084 1.386-1.938 1.907-.844.51-1.88.901-3.109 1.172-1.229.27-2.615.406-4.156.406h-5.985v5.187c0 2.667 1.323 4 3.969 4h1.094v.578h-14.407v-.578h.766c2.646 0 3.969-1.333 3.969-4v-12.703c0-2.646-1.323-3.969-3.969-3.969h-.734v-.578zm121.5-.437c2.041 0 3.906.328 5.594.984a12.425 12.425 0 014.421 2.844 11.676 11.676 0 012.438 3.562 9.843 9.843 0 01.859 4c0 2.053-.583 3.943-1.75 5.672-1.156 1.73-2.734 3.099-4.734 4.11-1.99 1.01-4.172 1.515-6.547 1.515-1.813 0-3.521-.286-5.125-.859-1.594-.573-3-1.38-4.219-2.422a11.556 11.556 0 01-2.859-3.672 9.906 9.906 0 01-1.016-4.375c0-2.021.589-3.906 1.766-5.656 1.177-1.75 2.755-3.135 4.734-4.156 1.979-1.032 4.125-1.547 6.438-1.547zm.406.562c-.948 0-1.844.167-2.688.5a5.702 5.702 0 00-2.109 1.391 9.403 9.403 0 00-1.609 2.344c-.438.896-.771 1.901-1 3.015a18.403 18.403 0 00-.328 3.578c0 1.605.177 3.068.531 4.391.354 1.313.864 2.448 1.531 3.406.667.948 1.464 1.672 2.391 2.172.927.5 1.958.75 3.093.75 1.542 0 2.881-.437 4.016-1.312 1.146-.886 2.021-2.146 2.625-3.782.615-1.635.922-3.578.922-5.828 0-1.458-.167-2.823-.5-4.093-.333-1.271-.813-2.375-1.437-3.313-.626-.948-1.381-1.698-2.266-2.25a5.801 5.801 0 00-1.516-.703 5.604 5.604 0 00-1.656-.266z" fill="#000"/></svg>