<svg xmlns="http://www.w3.org/2000/svg" width="24" height="25" fill="none"><g clip-path="url(#a)"><path fill="#5E5E5E" d="M18 15.423v2.28c2.193.44 3.6 1.115 3.6 1.873 0 1.327-4.298 2.4-9.6 2.4s-9.6-1.073-9.6-2.4c0-.758 1.407-1.432 3.6-1.873v-2.28c-3.584.83-6 2.376-6 4.153 0 2.651 5.373 4.8 12 4.8s12-2.149 12-4.8c0-1.777-2.416-3.324-6-4.153Z"/><path fill="#0A4EB7" d="M19.2 7.58a7.2 7.2 0 0 0-14.4 0c0 4.8 7.2 13.2 7.2 13.2s7.2-8.4 7.2-13.2Zm-9.6 0a2.402 2.402 0 1 1 4.804.002A2.402 2.402 0 0 1 9.6 7.58Z"/></g><defs><clipPath id="a"><path fill="#fff" d="M0 .38h24v24H0z"/></clipPath></defs></svg>