<svg xmlns="http://www.w3.org/2000/svg" width="24" height="25" fill="none"><g clip-path="url(#a)"><path fill="#0A4EB7" d="M8 5.834c0-.804-.405-1.5-1-1.878V.38H5v3.273H2c-1.103 0-2 .978-2 2.181v16.364c0 1.203.897 2.182 2 2.182h4c1.103 0 2-.979 2-2.182V5.834Z"/><path fill="#5E5E5E" d="M22 5.834c1.103 0 2 .979 2 2.182v12c0 1.204-.897 2.182-2 2.182H9V5.834h13Zm-9 13.091a.96.96 0 0 0 .707-.32c.188-.204.293-.481.293-.77 0-.29-.105-.567-.293-.772a.96.96 0 0 0-.707-.32.96.96 0 0 0-.707.32 1.143 1.143 0 0 0-.293.771c0 .29.105.567.293.772a.96.96 0 0 0 .707.32Zm0-3.272a.96.96 0 0 0 .707-.32c.188-.204.293-.482.293-.771 0-.29-.105-.567-.293-.772a.96.96 0 0 0-.707-.32.96.96 0 0 0-.707.32 1.143 1.143 0 0 0-.293.772c0 .29.105.567.293.771a.96.96 0 0 0 .707.32Zm3 3.272a.96.96 0 0 0 .707-.32c.188-.204.293-.481.293-.77 0-.29-.105-.567-.293-.772a.96.96 0 0 0-.707-.32.96.96 0 0 0-.707.32 1.143 1.143 0 0 0-.293.771c0 .29.105.567.293.772a.96.96 0 0 0 .707.32Zm0-3.272a.96.96 0 0 0 .707-.32c.188-.204.293-.482.293-.771 0-.29-.105-.567-.293-.772a.96.96 0 0 0-.707-.32.96.96 0 0 0-.707.32 1.143 1.143 0 0 0-.293.772c0 .29.105.567.293.771a.96.96 0 0 0 .707.32Zm3 3.272a.96.96 0 0 0 .707-.32c.188-.204.293-.481.293-.77 0-.29-.105-.567-.293-.772a.96.96 0 0 0-.707-.32.96.96 0 0 0-.707.32 1.143 1.143 0 0 0-.293.771c0 .29.105.567.293.772a.96.96 0 0 0 .707.32Zm0-3.272a.96.96 0 0 0 .707-.32c.188-.204.293-.482.293-.771 0-.29-.105-.567-.293-.772a.96.96 0 0 0-.707-.32.96.96 0 0 0-.707.32 1.143 1.143 0 0 0-.293.772c0 .29.105.567.293.771a.96.96 0 0 0 .707.32Zm1-6.546h-8v2.182h8V9.107Z"/></g><defs><clipPath id="a"><path fill="#fff" d="M0 .38h24v24H0z"/></clipPath></defs></svg>